<?xml version="1.0" encoding="UTF-8" standalone="no"?>
<!-- Generator: Gravit.io -->
<svg xmlns="http://www.w3.org/2000/svg" xmlns:xlink="http://www.w3.org/1999/xlink" style="isolation:isolate" viewBox="0 0 200 200" width="200pt" height="200pt"><defs><clipPath id="_clipPath_6jhV74ExAXh1sgi7Qx8opjC3JovOMWgv"><rect width="200" height="200"/></clipPath></defs><g clip-path="url(#_clipPath_6jhV74ExAXh1sgi7Qx8opjC3JovOMWgv)"><rect width="200" height="200" style="fill:rgb(19,14,23)"/><g style="opacity:0.7;"><path d=" M 159.29 97.258 C 161.85 102.472 163.25 108.113 163.25 114 C 163.25 140.489 134.909 162 100 162 C 65.091 162 36.75 140.489 36.75 114 C 36.75 108.113 38.15 102.472 40.71 97.258 M 40.71 97.258 L 40.71 35 L 89 63 L 111 63 L 159.29 35 L 159.29 97.258" fill-rule="evenodd" fill="rgb(19,14,23)" vector-effect="non-scaling-stroke" stroke-width="6" stroke="rgb(29,21,36)" stroke-linejoin="round" stroke-linecap="round" stroke-miterlimit="3"/><line x1="49" y1="116" x2="19" y2="119" vector-effect="non-scaling-stroke" stroke-width="4" stroke="rgb(29,21,36)" stroke-linejoin="miter" stroke-linecap="round" stroke-miterlimit="3"/><line x1="51.75" y1="124" x2="21.75" y2="129" vector-effect="non-scaling-stroke" stroke-width="4" stroke="rgb(29,21,36)" stroke-linejoin="miter" stroke-linecap="round" stroke-miterlimit="3"/><line x1="55" y1="132" x2="26" y2="140" vector-effect="non-scaling-stroke" stroke-width="4" stroke="rgb(29,21,36)" stroke-linejoin="miter" stroke-linecap="round" stroke-miterlimit="3"/><line x1="151" y1="116" x2="181" y2="119" vector-effect="non-scaling-stroke" stroke-width="4" stroke="rgb(29,21,36)" stroke-linejoin="miter" stroke-linecap="round" stroke-miterlimit="3"/><line x1="148.25" y1="124" x2="178.25" y2="129" vector-effect="non-scaling-stroke" stroke-width="4" stroke="rgb(29,21,36)" stroke-linejoin="miter" stroke-linecap="round" stroke-miterlimit="3"/><line x1="145" y1="132" x2="174" y2="140" vector-effect="non-scaling-stroke" stroke-width="4" stroke="rgb(29,21,36)" stroke-linejoin="miter" stroke-linecap="round" stroke-miterlimit="3"/><path d=" M 100 127.5 C 100 132.191 95.295 136 89.5 136 C 83.705 136 79 132.191 79 127.5" fill="none" vector-effect="non-scaling-stroke" stroke-width="4" stroke="rgb(29,21,36)" stroke-linejoin="round" stroke-linecap="round" stroke-miterlimit="3"/><path d=" M 121 127.5 C 121 132.191 116.295 136 110.5 136 C 104.705 136 100 132.191 100 127.5" fill="none" vector-effect="non-scaling-stroke" stroke-width="4" stroke="rgb(29,21,36)" stroke-linejoin="round" stroke-linecap="round" stroke-miterlimit="3"/><path d=" M 100 126.5 L 95 118 L 105 118 L 100 126.5 Z " fill="rgb(19,14,23)" vector-effect="non-scaling-stroke" stroke-width="4" stroke="rgb(29,21,36)" stroke-linejoin="round" stroke-linecap="round" stroke-miterlimit="3"/><circle vector-effect="non-scaling-stroke" cx="74.5" cy="102.75840234756475" r="5.5" fill="rgb(29,21,36)"/><circle vector-effect="non-scaling-stroke" cx="125.5" cy="102.75840234756475" r="5.5" fill="rgb(29,21,36)"/></g></g></svg>